<svg width="92" height="27" viewBox="0 0 92 27" fill="none" xmlns="http://www.w3.org/2000/svg">
<path d="M91.5517 14.7141L82.3476 25.8685C82.0519 26.2255 81.6822 26.4039 81.3126 26.4039C80.943 26.4039 80.5733 26.2255 80.2776 25.8685C79.6862 25.1546 79.6862 24.0392 80.2776 23.3253L86.9681 15.2049H65.381C64.5678 15.2049 63.9025 14.4018 63.9025 13.4202C63.9025 12.4386 64.5678 11.6355 65.381 11.6355H86.9681L80.2776 3.51514C79.6862 2.80126 79.6862 1.68582 80.2776 0.971934C80.869 0.258053 81.7931 0.258053 82.3846 0.971934L91.5887 12.1263C92.1431 12.8848 92.1431 14.0449 91.5517 14.7141Z" fill="#FF5A00"/>
<rect x="0.314453" y="11.2344" width="88.7142" height="4.46175" rx="2.23088" fill="#FF5A00"/>
</svg>
