<svg width="100" height="80" viewBox="0 0 100 80" fill="none" xmlns="http://www.w3.org/2000/svg">
<path d="M19.5024 73.5788V73.8726C19.5024 73.8726 19.7336 73.621 19.8906 73.5522C20.0469 73.4843 20.2094 73.4507 20.3758 73.4507C20.6875 73.4507 20.9641 73.5327 21.2055 73.6983C21.4461 73.864 21.6344 74.0858 21.7672 74.3655C21.9008 74.646 21.9672 74.953 21.9672 75.2874C21.9672 75.6226 21.9008 75.9304 21.7672 76.2108C21.6336 76.4913 21.4469 76.7147 21.2063 76.8796C20.9664 77.0452 20.6945 77.1272 20.3914 77.1272C20.2117 77.1272 20.0469 77.0905 19.8945 77.0187C19.743 76.946 19.6148 76.8499 19.5102 76.7312L19.5477 77.1538V78.2194H18.307V73.5796H19.5024V73.5788ZM20.5094 75.9562C20.6109 75.9022 20.6914 75.8194 20.7524 75.7101C20.8133 75.5999 20.8438 75.464 20.8438 75.2999C20.8438 75.146 20.8141 75.014 20.7547 74.9046C20.6953 74.796 20.6141 74.7132 20.5133 74.6569C20.4117 74.6007 20.2984 74.5726 20.1727 74.5726C20.0516 74.5726 19.9414 74.6054 19.8406 74.6702C19.7406 74.7351 19.6609 74.8226 19.6031 74.9327C19.5445 75.0429 19.5156 75.1647 19.5156 75.2991C19.5156 75.4444 19.5461 75.5733 19.607 75.6843C19.668 75.796 19.7484 75.8819 19.8516 75.9444C19.9539 76.0062 20.0633 76.0366 20.1805 76.0366C20.2977 76.0374 20.4078 76.0101 20.5094 75.9562Z" fill="white"/>
<path d="M23.1539 76.8695C22.9242 76.7039 22.7453 76.4812 22.6172 76.2008C22.4898 75.9203 22.4258 75.6125 22.4258 75.2773C22.4258 74.9445 22.4898 74.6375 22.6195 74.3555C22.7484 74.0742 22.9273 73.8508 23.1563 73.6852C23.3844 73.5195 23.6406 73.4375 23.9242 73.4375C24.1508 73.4375 24.3492 73.475 24.518 73.5484C24.6883 73.6219 24.9234 73.8703 24.9234 73.8703V73.5789H26.0719V77.0242H24.8773V76.6883C24.818 76.8266 24.6844 76.9336 24.5164 77.007C24.3477 77.0813 24.1523 77.118 23.9305 77.118C23.643 77.1172 23.3836 77.0352 23.1539 76.8695ZM24.5633 75.9383C24.6648 75.8742 24.7445 75.7867 24.8016 75.6734C24.8586 75.5617 24.8875 75.4367 24.8875 75.3C24.8875 75.168 24.8586 75.0461 24.8 74.9352C24.7422 74.8242 24.6625 74.7359 24.5609 74.6711C24.4594 74.6062 24.3484 74.5734 24.2266 74.5734C24.1031 74.5734 23.9914 74.6016 23.8914 74.6578C23.7914 74.7141 23.7117 74.7969 23.6523 74.9055C23.593 75.0148 23.5625 75.1461 23.5625 75.3008C23.5625 75.4641 23.593 75.6008 23.6539 75.7109C23.7148 75.8211 23.7953 75.9023 23.8945 75.9555C23.9953 76.0086 24.1047 76.0352 24.2234 76.0352C24.3484 76.0336 24.4617 76.0016 24.5633 75.9383Z" fill="white"/>
<path d="M27.9102 73.5786V73.945C27.9906 73.831 28.0859 73.7411 28.1938 73.6763C28.3016 73.6106 28.4375 73.5786 28.6016 73.5786H29.0125V74.5896H28.6656C28.4328 74.5896 28.2555 74.6622 28.1359 74.8075C28.0156 74.9528 27.9563 75.1661 27.9563 75.4466V77.0247H26.7617V73.5794H27.9102V73.5786Z" fill="white"/>
<path d="M30.6148 76.9285C30.4391 76.8645 30.2891 76.7285 30.1641 76.5223C30.0398 76.316 29.9773 76.0152 29.9773 75.6223V74.5895H29.3805V73.5785H29.9773V72.5676L31.1719 72.5605V73.5785H32.0445V74.5895H31.1719V75.6879C31.1719 75.791 31.1992 75.8715 31.2547 75.9277C31.3094 75.9848 31.382 76.0137 31.4734 76.0137H31.9992V77.0246H31.1953C30.9844 77.0238 30.7906 76.9926 30.6148 76.9285Z" fill="white"/>
<path d="M34.8578 76.8941C34.5773 76.7301 34.3586 76.5074 34.2016 76.2262C34.0453 75.9457 33.9672 75.6379 33.9672 75.3027C33.9672 74.9676 34.0445 74.6598 34.2 74.3793C34.3555 74.0988 34.5742 73.8754 34.8555 73.7105C35.1375 73.5449 35.4586 73.4629 35.8172 73.4629C36.1805 73.4629 36.5039 73.5449 36.7867 73.7105C37.0695 73.8762 37.2906 74.0988 37.4477 74.3793C37.6047 74.6598 37.6836 74.9676 37.6836 75.3027C37.6836 75.6395 37.6055 75.9488 37.4484 76.2293C37.2922 76.5098 37.0719 76.7324 36.7883 76.8949C36.5039 77.0582 36.1789 77.1395 35.8133 77.1395C35.457 77.1402 35.1383 77.0582 34.8578 76.8941ZM36.1727 75.9355C36.2727 75.8754 36.35 75.7902 36.4055 75.6809C36.4602 75.5723 36.4875 75.4449 36.4875 75.2996C36.4875 75.1566 36.4602 75.0301 36.4055 74.9215C36.35 74.8121 36.2727 74.7277 36.1727 74.6668C36.0719 74.6059 35.957 74.5754 35.8273 74.5754C35.6953 74.5754 35.5789 74.6059 35.4789 74.6668C35.3781 74.7277 35.3008 74.8121 35.2461 74.9215C35.1906 75.0301 35.1633 75.1566 35.1633 75.2996C35.1633 75.4449 35.1906 75.573 35.2461 75.6832C35.3008 75.7934 35.3781 75.8785 35.4789 75.9379C35.5789 75.9973 35.6953 76.027 35.8273 76.027C35.9578 76.027 36.0727 75.9965 36.1727 75.9355Z" fill="white"/>
<path d="M37.8789 74.5889V73.5779H38.4758V73.4615C38.4758 73.2818 38.5125 73.1029 38.5844 72.9248C38.657 72.7475 38.7812 72.5975 38.9547 72.4748C39.1289 72.3529 39.3586 72.292 39.643 72.292H40.4508V73.3029H39.9602C39.8633 73.3029 39.7906 73.3295 39.7422 73.3818C39.6938 73.4342 39.6695 73.4912 39.6695 73.5537V73.5795H40.4508V74.5904H39.6695V77.0256H38.4766V74.5904H37.8789V74.5889Z" fill="white"/>
<path d="M42.5195 72.5679H43.7602V77.0702H42.5195V72.5679Z" fill="white"/>
<path d="M45.5977 73.5786V73.8638C45.7 73.7333 45.8399 73.6286 46.0188 73.5505C46.1969 73.4731 46.3938 73.4341 46.6094 73.4341C47.0703 73.4341 47.4156 73.5864 47.6438 73.8919C47.8719 74.1974 47.9867 74.6231 47.9867 75.1692V77.002L46.7922 77.0497V75.2091C46.7922 74.7817 46.6235 74.5677 46.2867 74.5677C46.1149 74.5677 45.9727 74.6333 45.8594 74.763C45.7461 74.8935 45.6891 75.0911 45.6891 75.3575V77.0231H44.4485V73.5778H45.5977V73.5786Z" fill="white"/>
<path d="M49.6039 76.9285C49.4242 76.8645 49.2703 76.7285 49.143 76.5223C49.0156 76.316 48.9516 76.0152 48.9516 75.6223V74.5895H48.3086V73.5785H48.9055V72.5676L50.1461 72.5605V73.5785H51.0188V74.5895H50.1461V75.6879C50.1461 75.791 50.1734 75.8715 50.2289 75.9277C50.2836 75.9848 50.3563 76.0137 50.4477 76.0137H51.0188V77.0246H50.1961C49.9813 77.0238 49.7836 76.9926 49.6039 76.9285Z" fill="white"/>
<path d="M52.7188 72.3379V73.4418L52.6883 73.8582C52.925 73.5941 53.2539 73.4621 53.6758 73.4621C54.1399 73.4621 54.4867 73.6137 54.7164 73.9168C54.9461 74.2199 55.061 74.6418 55.061 75.184V77.0246H53.8203V75.2105C53.8203 74.7832 53.6516 74.5691 53.3149 74.5691C53.2086 74.5691 53.1102 74.602 53.0195 74.6668C52.9281 74.7316 52.8547 74.8238 52.8 74.9441C52.7453 75.0645 52.718 75.2027 52.718 75.359V76.9785H51.4774V72.3387H52.7188V72.3379Z" fill="white"/>
<path d="M59.0828 75.5997H56.7516C56.8156 75.9521 57.0133 76.1216 57.3437 76.1216C57.5898 76.1216 57.7445 76.0388 57.8086 75.8755H59.0477C59.0031 76.0794 58.9062 76.2771 58.7578 76.4661C58.6094 76.6552 58.4156 76.8099 58.1766 76.931C57.9367 77.0513 57.6672 77.1114 57.3664 77.1114C57.018 77.1114 56.7078 77.0317 56.4359 76.8716C56.1641 76.7122 55.9523 76.495 55.8016 76.2231C55.6508 75.9513 55.5758 75.6536 55.5758 75.331C55.5758 75.0067 55.6508 74.7083 55.8016 74.4356C55.9523 74.163 56.1625 73.9474 56.4336 73.7872C56.7055 73.6271 57.0156 73.5474 57.3664 73.5474C57.7172 73.5474 58.0234 73.6263 58.2867 73.7856C58.5508 73.945 58.7523 74.1599 58.893 74.4317C59.0344 74.7028 59.1047 75.0028 59.1047 75.3317C59.1047 75.4185 59.0977 75.5122 59.0828 75.5997ZM57.925 74.8185C57.9094 74.6911 57.85 74.5872 57.7469 74.5091C57.643 74.431 57.5211 74.3919 57.3797 74.3919C57.243 74.3919 57.1219 74.4247 57.0164 74.4911C56.9102 74.5575 56.8297 74.6669 56.7758 74.8185H57.925Z" fill="white"/>
<path d="M60.7586 73.5786V73.945C60.843 73.831 60.9414 73.7411 61.0539 73.6763C61.1664 73.6106 61.3078 73.5786 61.4789 73.5786H61.907V74.5896H61.5445C61.3016 74.5896 61.1164 74.6622 60.9922 74.8075C60.8672 74.9528 60.8047 75.1661 60.8047 75.4466V77.0247H59.6094V73.5794H60.7586V73.5786Z" fill="white"/>
<path d="M62.9813 78.1304C62.7203 78.0046 62.5273 77.8382 62.4016 77.6304C62.275 77.4233 62.2125 76.9788 62.2125 76.9788H63.4156C63.4156 76.9788 63.4719 77.1194 63.5148 77.1726C63.557 77.2249 63.6172 77.2632 63.6922 77.2858C63.768 77.3093 63.8672 77.321 63.9883 77.321C64.2195 77.321 64.3899 77.2679 64.5024 77.1624C64.6141 77.0562 64.6703 76.9077 64.6633 76.7163V76.4983C64.5727 76.6483 64.4484 76.7491 64.2992 76.8007C64.1492 76.853 63.9672 76.878 63.7516 76.878C63.4422 76.878 63.168 76.803 62.9305 76.653C62.6922 76.503 62.5078 76.2999 62.3773 76.0436C62.2469 75.7874 62.182 75.5046 62.182 75.1968C62.182 74.8882 62.2461 74.5991 62.3734 74.3296C62.5016 74.0593 62.682 73.8437 62.9149 73.6819C63.1469 73.5202 63.4125 73.439 63.7117 73.439C63.9469 73.439 64.1438 73.4819 64.3024 73.5694C64.4617 73.6562 64.7078 73.8718 64.7078 73.8718V73.5796H65.8102V76.7179C65.8305 77.0429 65.7524 77.3257 65.5977 77.5671C65.443 77.8085 65.2234 77.9944 64.9406 78.1249C64.6578 78.2562 64.3289 78.321 63.9547 78.321C63.5672 78.3202 63.2422 78.2569 62.9813 78.1304ZM64.2953 75.7796C64.3969 75.7202 64.4766 75.6397 64.5344 75.5397C64.593 75.4397 64.6219 75.3319 64.6219 75.2179C64.6219 75.1077 64.5938 75.003 64.5359 74.9038C64.4789 74.8046 64.3992 74.7249 64.2977 74.664C64.1961 74.603 64.0844 74.5726 63.9609 74.5726C63.7633 74.5726 63.6023 74.6296 63.4805 74.7413C63.3586 74.853 63.2969 75.0124 63.2969 75.2171C63.2969 75.3491 63.3258 75.464 63.3836 75.5624C63.4406 75.6601 63.5188 75.7358 63.618 75.7882C63.7172 75.8413 63.8305 75.8679 63.9586 75.8679C64.0813 75.8686 64.193 75.839 64.2953 75.7796Z" fill="white"/>
<path d="M67.6492 73.5786V73.945C67.7336 73.831 67.832 73.7411 67.9445 73.6763C68.057 73.6106 68.1984 73.5786 68.3695 73.5786H68.7977V74.5896H68.4352C68.1922 74.5896 68.007 74.6622 67.8828 74.8075C67.7578 74.9528 67.6953 75.1661 67.6953 75.4466V77.0247H66.5008V73.5794H67.6492V73.5786Z" fill="white"/>
<path d="M69.8414 76.8941C69.561 76.7301 69.3422 76.5074 69.1852 76.2262C69.0289 75.9457 68.9508 75.6379 68.9508 75.3027C68.9508 74.9676 69.0281 74.6598 69.1836 74.3793C69.3391 74.0988 69.5578 73.8754 69.8391 73.7105C70.1211 73.5449 70.4422 73.4629 70.8008 73.4629C71.1641 73.4629 71.4875 73.5449 71.7703 73.7105C72.0531 73.8762 72.2742 74.0988 72.4313 74.3793C72.5883 74.6598 72.6672 74.9676 72.6672 75.3027C72.6672 75.6395 72.5891 75.9488 72.4321 76.2293C72.2758 76.5098 72.0555 76.7324 71.7719 76.8949C71.4875 77.0582 71.1625 77.1395 70.7969 77.1395C70.4406 77.1402 70.1219 77.0582 69.8414 76.8941ZM71.1563 75.9355C71.2563 75.8754 71.3336 75.7902 71.3891 75.6809C71.4438 75.5723 71.4711 75.4449 71.4711 75.2996C71.4711 75.1566 71.4438 75.0301 71.3891 74.9215C71.3336 74.8121 71.2563 74.7277 71.1563 74.6668C71.0555 74.6059 70.9406 74.5754 70.811 74.5754C70.6789 74.5754 70.5625 74.6059 70.4625 74.6668C70.3617 74.7277 70.2844 74.8121 70.2297 74.9215C70.1742 75.0301 70.1469 75.1566 70.1469 75.2996C70.1469 75.4449 70.1742 75.573 70.2297 75.6832C70.2844 75.7934 70.3617 75.8785 70.4625 75.9379C70.5625 75.9973 70.6789 76.027 70.811 76.027C70.9406 76.027 71.0555 75.9965 71.1563 75.9355Z" fill="white"/>
<path d="M73.6305 76.7303C73.3188 76.4576 73.1625 76.0201 73.1625 75.4186V73.5779H74.3109V75.3787C74.3109 75.5881 74.35 75.7482 74.4289 75.8592C74.5078 75.9709 74.6359 76.0256 74.8149 76.0256C74.9984 76.0256 75.1281 75.9686 75.2063 75.8553C75.2836 75.742 75.3219 75.5826 75.3219 75.3779V73.5771H76.5625V75.4178C76.5625 76.0193 76.4063 76.4568 76.0945 76.7295C75.782 77.0029 75.3711 77.1397 74.8609 77.1397C74.3531 77.1404 73.943 77.0037 73.6305 76.7303Z" fill="white"/>
<path d="M78.3078 73.5788V73.8726C78.3078 73.8726 78.5656 73.621 78.7235 73.5522C78.8797 73.4843 79.0422 73.4507 79.2086 73.4507C79.5203 73.4507 79.7969 73.5327 80.0383 73.6983C80.2789 73.864 80.4672 74.0858 80.6008 74.3655C80.7344 74.646 80.8008 74.953 80.8008 75.2874C80.8008 75.6226 80.7344 75.9304 80.6008 76.2108C80.4672 76.4913 80.2805 76.7147 80.0399 76.8796C79.8 77.0452 79.5281 77.1272 79.225 77.1272C79.0453 77.1272 78.8805 77.0905 78.7281 77.0187C78.5766 76.946 78.4477 76.8499 78.3438 76.7312L78.3539 77.1538V78.2194H77.1594V73.5796H78.3078V73.5788ZM79.3547 75.9562C79.4563 75.9022 79.5367 75.8194 79.5977 75.7101C79.6586 75.6007 79.6891 75.464 79.6891 75.2999C79.6891 75.146 79.6594 75.014 79.6 74.9046C79.5406 74.796 79.4594 74.7132 79.3586 74.6569C79.257 74.6007 79.1438 74.5726 79.0188 74.5726C78.8977 74.5726 78.7875 74.6054 78.6867 74.6702C78.5867 74.7351 78.5071 74.8226 78.4492 74.9327C78.3906 75.0429 78.3617 75.1647 78.3617 75.2991C78.3617 75.4444 78.3922 75.5733 78.4531 75.6843C78.5141 75.796 78.5945 75.8819 78.6977 75.9444C78.8 76.0062 78.9094 76.0366 79.0266 76.0366C79.1438 76.0374 79.2539 76.0101 79.3547 75.9562Z" fill="white"/>
<path d="M37.4195 14.8186V32.5522H19.686V14.8186H37.4195ZM38.8438 13.4404H18.3078V33.9764H38.8438V13.4404Z" fill="white"/>
<path d="M47.5266 7.56006H32.9172V22.1694H47.5266V7.56006Z" fill="white"/>
<path d="M61.0336 11.7405V17.989H54.7852V11.7405H61.0336ZM62.3203 10.4546H53.4992V19.2757H62.3203V10.4546Z" fill="white"/>
<path d="M56.486 1.72559H50.6055V7.60606H56.486V1.72559Z" fill="white"/>
<path d="M65.2141 1.67969H62.2281V4.66563H65.2141V1.67969Z" fill="white"/>
<path d="M26.118 66.5951H18.3078V40.96H19.7188C23.2531 40.96 26.118 43.8248 26.118 47.3592V66.5951Z" fill="white"/>
<path d="M30.0742 59.3008L36.7312 58.1141C36.8 59.0773 37.1703 59.8945 37.8406 60.5656C38.5117 61.2359 39.4828 61.5719 40.7562 61.5719C41.7187 61.5719 42.4594 61.357 42.975 60.9266C43.4906 60.4969 43.7492 59.9719 43.7492 59.3523C43.7492 58.3203 42.9062 57.6156 41.2203 57.2367L38.2789 56.5664C35.6641 56.0164 33.7375 55.0437 32.4992 53.6508C31.2609 52.2578 30.6414 50.5984 30.6414 48.6711C30.6414 46.2977 31.5781 44.2844 33.4539 42.6336C35.3289 40.982 37.6766 40.1562 40.4977 40.1562C43.8344 40.1562 46.3367 40.9562 48.0062 42.5562C49.6742 44.1562 50.5945 45.9023 50.7672 47.7938L44.2648 48.9805C44.1617 48.0516 43.8086 47.2953 43.207 46.7102C42.6047 46.1258 41.7367 45.8328 40.6008 45.8328C39.8437 45.8328 39.1898 46.0391 38.6398 46.4523C38.0891 46.8648 37.8141 47.3992 37.8141 48.0523C37.8141 49.0844 38.4852 49.7211 39.8266 49.9617L43.2328 50.632C45.8133 51.1484 47.7742 52.1289 49.1156 53.5734C50.457 55.0187 51.1281 56.7211 51.1281 58.682C51.1281 61.0562 50.2328 63.0945 48.4445 64.7969C46.6555 66.5 44.1438 67.3516 40.9102 67.3516C39.018 67.3516 37.3406 67.0758 35.8789 66.5258C34.4164 65.9758 33.2984 65.2617 32.5242 64.3844C31.75 63.507 31.1648 62.6391 30.7695 61.7781C30.375 60.9188 30.1422 60.093 30.0742 59.3008Z" fill="white"/>
<path d="M74.4875 29.2446C78.0187 29.2446 80.8812 32.1071 80.8812 35.6384V55.3767C80.8484 56.5173 80.5977 60.1478 77.8383 63.2165C75.818 65.4634 73.4586 66.2899 72.5476 66.5962C70.2031 67.3853 68.2766 67.2743 66.5258 67.1743C64.7961 67.0751 62.9891 66.9649 60.9062 65.9399C59.6469 65.3204 58.5016 64.4673 57.4703 63.3814C55.0687 60.8524 53.8687 57.6274 53.8687 53.7056C53.8687 49.8532 55.0344 46.661 57.368 44.1329C59.7 41.604 62.668 40.3399 66.2695 40.3399C69.7687 40.3399 72.0664 41.2173 73.1641 42.972V29.2446H74.4875ZM63.3633 49.0313C62.2453 50.1329 61.6859 51.6978 61.6859 53.7274C61.6859 55.7579 62.2445 57.3321 63.3633 58.4493C64.4805 59.5673 65.8484 60.1267 67.4656 60.1267C69.082 60.1267 70.45 59.5681 71.568 58.4493C72.6852 57.3321 73.2453 55.7579 73.2453 53.7274C73.2453 51.6978 72.6859 50.1329 71.568 49.0313C70.45 47.9306 69.082 47.3798 67.4656 47.3798C65.8484 47.3806 64.4812 47.9313 63.3633 49.0313Z" fill="white"/>
</svg>
