<svg width="146" height="117" viewBox="0 0 146 117" fill="none" xmlns="http://www.w3.org/2000/svg">
<path d="M28.7266 108.023V108.452C28.7266 108.452 29.0517 108.081 29.2913 107.979C29.5285 107.879 29.7749 107.828 30.0281 107.828C30.5015 107.828 30.9212 107.95 31.2885 108.194C31.6546 108.439 31.9398 108.765 32.1428 109.178C32.3458 109.591 32.4474 110.044 32.4474 110.538C32.4474 111.031 32.3458 111.486 32.1428 111.899C31.9398 112.314 31.6558 112.642 31.2908 112.887C30.9258 113.131 30.5129 113.252 30.0532 113.252C29.7806 113.252 29.5296 113.199 29.2992 113.092C29.0688 112.985 28.8738 112.843 28.7152 112.668L28.7757 113.292V114.877H26.9803V108.023H28.7266ZM30.1981 111.502C30.3475 111.422 30.4661 111.301 30.5562 111.139C30.6452 110.976 30.6908 110.775 30.6908 110.534C30.6908 110.307 30.6475 110.113 30.5596 109.951C30.4718 109.791 30.3532 109.668 30.2038 109.586C30.0543 109.504 29.8878 109.461 29.703 109.461C29.5251 109.461 29.362 109.51 29.2137 109.605C29.0666 109.701 28.9491 109.83 28.8635 109.993C28.7768 110.155 28.7346 110.335 28.7346 110.533C28.7346 110.747 28.7791 110.937 28.8692 111.101C28.9582 111.265 29.078 111.392 29.2285 111.485C29.3791 111.575 29.541 111.621 29.7121 111.621C29.8867 111.621 30.0486 111.582 30.1981 111.502Z" fill="#231F20"/>
<path d="M34.0385 112.888C33.6895 112.643 33.418 112.315 33.223 111.901C33.0291 111.486 32.9321 111.032 32.9321 110.539C32.9321 110.047 33.0291 109.595 33.2264 109.179C33.4226 108.764 33.6941 108.434 34.042 108.191C34.3887 107.946 34.7777 107.825 35.2088 107.825C35.5533 107.825 35.8544 107.88 36.1111 107.988C36.37 108.097 36.7338 108.464 36.7338 108.464V108.024H38.4322V113.128H36.6848V112.62C36.5662 112.825 36.3643 112.982 36.1088 113.09C35.8521 113.2 35.5556 113.253 35.2179 113.253C34.7811 113.253 34.3876 113.131 34.0385 112.888ZM36.1669 111.474C36.3175 111.38 36.4338 111.251 36.5183 111.084C36.6027 110.918 36.6449 110.734 36.6449 110.533C36.6449 110.338 36.6027 110.158 36.516 109.995C36.4304 109.831 36.3129 109.701 36.1647 109.605C36.0141 109.509 35.851 109.461 35.6731 109.461C35.4917 109.461 35.3274 109.504 35.1792 109.586C35.032 109.668 34.9145 109.791 34.8267 109.951C34.7389 110.113 34.6944 110.307 34.6944 110.534C34.6944 110.775 34.7389 110.976 34.829 111.139C34.918 111.301 35.0366 111.421 35.1837 111.498C35.332 111.577 35.4928 111.616 35.6673 111.616C35.851 111.616 36.0175 111.568 36.1669 111.474Z" fill="#231F20"/>
<path d="M41.0534 108.023V108.563C41.1777 108.395 41.3237 108.263 41.4902 108.167C41.6568 108.07 41.8666 108.023 42.1187 108.023H42.7518V109.481H42.2419C41.8997 109.481 41.6385 109.589 41.464 109.806C41.2872 110.023 41.1994 110.343 41.1994 110.764V113.127H39.355V108.023H41.0534Z" fill="#231F20"/>
<path d="M45.0593 112.891C44.7981 112.799 44.5745 112.603 44.3874 112.305C44.2027 112.007 44.1091 111.574 44.1091 111.007V109.481H43.1875V108.023H44.1091V106.565L45.9535 106.555V108.023H47.215V109.481H45.9535V111.093C45.9535 111.245 45.9934 111.363 46.0733 111.445C46.152 111.528 46.2569 111.57 46.3892 111.57H47.1181V113.028H45.9216C45.609 113.03 45.3216 112.984 45.0593 112.891Z" fill="#231F20"/>
<path d="M51.3258 112.886C50.9118 112.643 50.5901 112.315 50.3597 111.901C50.1305 111.486 50.0153 111.032 50.0153 110.539C50.0153 110.045 50.1293 109.59 50.3586 109.177C50.5867 108.762 50.9095 108.434 51.3236 108.19C51.7387 107.945 52.211 107.824 52.7402 107.824C53.2752 107.824 53.7508 107.945 54.1671 108.19C54.5835 108.434 54.9085 108.762 55.1401 109.177C55.3716 109.591 55.488 110.045 55.488 110.539C55.488 111.036 55.3728 111.492 55.1424 111.906C54.9131 112.321 54.588 112.648 54.1706 112.888C53.7519 113.129 53.2729 113.248 52.7357 113.248C52.2087 113.248 51.7387 113.128 51.3258 112.886ZM53.2626 111.472C53.4098 111.383 53.5238 111.259 53.6059 111.096C53.6869 110.936 53.7269 110.748 53.7269 110.534C53.7269 110.323 53.6858 110.136 53.6059 109.977C53.525 109.815 53.4098 109.691 53.2626 109.601C53.1143 109.511 52.9455 109.466 52.7539 109.466C52.5589 109.466 52.3878 109.51 52.2406 109.601C52.0923 109.69 51.9783 109.814 51.8973 109.977C51.8163 110.136 51.7752 110.323 51.7752 110.534C51.7752 110.748 51.8163 110.937 51.8973 111.1C51.9783 111.262 52.0923 111.388 52.2406 111.476C52.3878 111.564 52.5589 111.607 52.7539 111.607C52.9455 111.606 53.1143 111.561 53.2626 111.472Z" fill="#231F20"/>
<path d="M55.7572 109.481V108.023H56.6309V107.851C56.6309 107.586 56.6845 107.322 56.7917 107.061C56.8989 106.799 57.0814 106.579 57.3381 106.397C57.5947 106.217 57.9335 106.127 58.3521 106.127H59.5429V107.585H58.8426C58.7045 107.585 58.5996 107.626 58.5312 107.71C58.4616 107.793 58.4274 107.883 58.4274 107.982V108.022H59.5441V109.48H58.4274V113.028H56.6799V109.48H55.7572V109.481Z" fill="#231F20"/>
<path d="M62.6477 106.467H64.443V113.127H62.6477V106.467Z" fill="#231F20"/>
<path d="M67.1611 108.023V108.42C67.3106 108.228 67.5147 108.075 67.7771 107.962C68.0372 107.849 68.3257 107.792 68.6417 107.792C69.3158 107.792 69.8211 108.015 70.1553 108.463C70.4895 108.911 70.656 109.533 70.656 110.334V113.047L68.9086 113.116V110.452C68.9086 109.821 68.6634 109.506 68.1752 109.506C67.9254 109.506 67.7189 109.603 67.5547 109.794C67.3904 109.986 67.3083 110.278 67.3083 110.671V113.128H65.4639V108.024H67.1611V108.023Z" fill="#231F20"/>
<path d="M73.0274 112.891C72.7616 112.799 72.5346 112.603 72.3453 112.305C72.1571 112.007 72.0624 111.574 72.0624 111.007V109.481H71.1408V108.023H72.0624V106.565L73.8577 106.555V108.023H75.1193V109.481H73.8577V111.093C73.8577 111.245 73.8977 111.363 73.9775 111.445C74.0562 111.528 74.1612 111.57 74.2935 111.57H75.1193V113.028H73.9034C73.5851 113.03 73.2931 112.984 73.0274 112.891Z" fill="#231F20"/>
<path d="M77.5945 106.175V107.746L77.55 108.361C77.8979 107.971 78.3815 107.776 79.002 107.776C79.6841 107.776 80.1951 107.999 80.5327 108.447C80.8703 108.893 81.0391 109.516 81.0391 110.316V113.031H79.2438V110.355C79.2438 109.724 78.9917 109.409 78.4876 109.409C78.329 109.409 78.1819 109.458 78.045 109.553C77.9081 109.649 77.7986 109.785 77.7165 109.962C77.6344 110.139 77.5933 110.343 77.5933 110.573V113.029H75.798V106.175H77.5945V106.175Z" fill="#231F20"/>
<path d="M87.0776 110.94H83.536C83.6329 111.485 83.934 111.743 84.4359 111.743C84.81 111.743 85.0439 111.616 85.142 111.377H87.0251C86.9578 111.679 86.8107 111.979 86.5848 112.267C86.359 112.555 86.0647 112.791 85.702 112.975C85.3381 113.157 84.9287 113.25 84.4713 113.25C83.942 113.25 83.4709 113.129 83.058 112.884C82.644 112.641 82.3235 112.312 82.0953 111.897C81.8672 111.482 81.752 111.031 81.752 110.54C81.752 110.046 81.8661 109.591 82.0953 109.178C82.3235 108.763 82.644 108.435 83.0557 108.191C83.4687 107.946 83.9409 107.825 84.4724 107.825C85.0039 107.825 85.4705 107.945 85.8708 108.187C86.2712 108.431 86.5791 108.756 86.7924 109.17C87.0069 109.582 87.113 110.039 87.113 110.539C87.1107 110.672 87.1004 110.815 87.0776 110.94ZM85.2925 109.821C85.2697 109.633 85.1819 109.481 85.0302 109.365C84.8773 109.25 84.6971 109.192 84.4895 109.192C84.2888 109.192 84.1097 109.241 83.9546 109.338C83.7983 109.435 83.6797 109.597 83.5998 109.821H85.2925Z" fill="#231F20"/>
<path d="M89.4843 108.023V108.563C89.6086 108.395 89.7546 108.263 89.9212 108.167C90.0877 108.07 90.2976 108.023 90.5497 108.023H91.1827V109.481H90.6569C90.3033 109.481 90.0352 109.589 89.8539 109.806C89.6714 110.023 89.5813 110.343 89.5813 110.764V113.127H87.7859V108.023H89.4843Z" fill="#231F20"/>
<path d="M92.7488 114.791C92.3701 114.604 92.0895 114.356 91.907 114.048C91.7234 113.739 91.6321 113.079 91.6321 113.079H93.3134C93.3134 113.079 93.3989 113.253 93.464 113.332C93.529 113.41 93.6191 113.466 93.7332 113.499C93.8484 113.535 93.9989 113.551 94.1837 113.551C94.535 113.551 94.7939 113.472 94.965 113.316C95.135 113.16 95.2205 112.94 95.2091 112.658V112.337C95.0711 112.558 94.8818 112.706 94.6559 112.783C94.4278 112.859 94.1518 112.897 93.8244 112.897C93.3545 112.897 92.9381 112.786 92.5766 112.566C92.215 112.345 91.9344 112.045 91.7371 111.666C91.5397 111.288 91.4405 110.872 91.4405 110.416C91.4405 109.962 91.5374 109.536 91.7313 109.137C91.9264 108.738 92.2001 108.42 92.5549 108.182C92.9073 107.943 93.3111 107.823 93.7651 107.823C94.1221 107.823 94.4209 107.887 94.6628 108.015C94.9046 108.143 95.2582 108.46 95.2582 108.46V108.02H96.8596V112.687C96.8893 113.17 96.7752 113.591 96.5516 113.95C96.3269 114.309 96.0087 114.586 95.5981 114.78C95.1874 114.975 94.7095 115.072 94.1654 115.072C93.5997 115.074 93.1275 114.98 92.7488 114.791ZM94.6719 111.241C94.8213 111.153 94.9388 111.036 95.0243 110.888C95.111 110.741 95.1532 110.582 95.1532 110.413C95.1532 110.251 95.111 110.097 95.0266 109.95C94.9422 109.804 94.8259 109.686 94.6753 109.597C94.5259 109.508 94.3616 109.462 94.1791 109.462C93.8883 109.462 93.651 109.546 93.4719 109.711C93.2917 109.877 93.2016 110.11 93.2016 110.413C93.2016 110.608 93.2438 110.777 93.3294 110.921C93.4138 111.065 93.5278 111.177 93.6738 111.255C93.8198 111.334 93.9875 111.373 94.1746 111.373C94.3571 111.373 94.5213 111.328 94.6719 111.241Z" fill="#231F20"/>
<path d="M99.5777 108.023V108.563C99.702 108.395 99.848 108.263 100.015 108.167C100.181 108.07 100.391 108.023 100.643 108.023H101.276V109.481H100.75C100.397 109.481 100.129 109.589 99.9473 109.806C99.7648 110.023 99.6747 110.343 99.6747 110.764V113.127H97.9272V108.023H99.5777Z" fill="#231F20"/>
<path d="M102.838 112.886C102.424 112.643 102.102 112.315 101.872 111.901C101.642 111.486 101.527 111.032 101.527 110.539C101.527 110.045 101.641 109.59 101.87 109.177C102.098 108.762 102.421 108.434 102.835 108.19C103.251 107.945 103.723 107.824 104.252 107.824C104.787 107.824 105.263 107.945 105.679 108.19C106.095 108.434 106.42 108.762 106.652 109.177C106.883 109.591 107 110.045 107 110.539C107 111.036 106.885 111.492 106.654 111.906C106.425 112.321 106.1 112.648 105.682 112.888C105.264 113.129 104.785 113.248 104.247 113.248C103.72 113.248 103.252 113.128 102.838 112.886ZM104.774 111.472C104.922 111.383 105.036 111.259 105.118 111.096C105.199 110.936 105.239 110.748 105.239 110.534C105.239 110.323 105.198 110.136 105.118 109.977C105.037 109.815 104.922 109.691 104.774 109.601C104.626 109.511 104.457 109.466 104.266 109.466C104.071 109.466 103.9 109.51 103.752 109.601C103.604 109.69 103.49 109.814 103.409 109.977C103.328 110.136 103.287 110.323 103.287 110.534C103.287 110.748 103.328 110.937 103.409 111.1C103.49 111.262 103.604 111.388 103.752 111.476C103.9 111.564 104.071 111.607 104.266 111.607C104.457 111.606 104.626 111.561 104.774 111.472Z" fill="#231F20"/>
<path d="M108.378 112.672C107.915 112.27 107.683 111.624 107.683 110.737V108.023H109.43V110.679C109.43 110.988 109.487 111.224 109.6 111.388C109.713 111.552 109.899 111.633 110.156 111.633C110.42 111.633 110.608 111.55 110.719 111.382C110.83 111.215 110.886 110.98 110.886 110.678V108.022H112.73V110.736C112.73 111.624 112.499 112.269 112.036 112.671C111.571 113.074 110.961 113.275 110.205 113.275C109.45 113.276 108.841 113.075 108.378 112.672Z" fill="#231F20"/>
<path d="M115.301 108.023V108.452C115.301 108.452 115.702 108.081 115.94 107.979C116.177 107.879 116.424 107.828 116.677 107.828C117.15 107.828 117.57 107.95 117.937 108.194C118.303 108.439 118.589 108.765 118.792 109.178C118.995 109.591 119.096 110.044 119.096 110.538C119.096 111.031 118.995 111.486 118.792 111.899C118.589 112.314 118.305 112.642 117.94 112.887C117.575 113.131 117.163 113.252 116.702 113.252C116.429 113.252 116.178 113.199 115.948 113.092C115.718 112.985 115.523 112.843 115.364 112.668L115.35 113.292V114.877H113.603V108.023H115.301ZM116.847 111.502C116.996 111.422 117.115 111.301 117.205 111.139C117.294 110.976 117.34 110.775 117.34 110.534C117.34 110.307 117.296 110.113 117.208 109.951C117.121 109.791 117.002 109.668 116.852 109.586C116.703 109.504 116.537 109.461 116.352 109.461C116.174 109.461 116.011 109.51 115.862 109.605C115.715 109.701 115.598 109.83 115.512 109.993C115.426 110.155 115.383 110.335 115.383 110.533C115.383 110.747 115.428 110.937 115.518 111.101C115.607 111.265 115.727 111.392 115.877 111.485C116.028 111.575 116.19 111.621 116.361 111.621C116.535 111.621 116.697 111.582 116.847 111.502Z" fill="#231F20"/>
<path d="M57.1647 19.3073H26.9313V49.5924H57.1647V19.3073Z" fill="#FF5A00"/>
<path d="M69.9283 10.6054H48.4298V32.1407H69.9283V10.6054Z" fill="#231F20"/>
<path d="M91.7656 14.8832H78.8081V27.8629H91.7656V14.8832Z" fill="#FF5A00"/>
<path d="M83.1265 2.04974H74.4885V10.7025H83.1265V2.04974Z" fill="#231F20"/>
<path d="M96.0361 1.95264H91.6196V6.3767H96.0361V1.95264Z" fill="#231F20"/>
<path d="M38.4813 97.6687H26.9803V59.8494H29.0586C34.2632 59.8494 38.4813 64.0758 38.4813 69.2882V97.6687Z" fill="#231F20"/>
<path d="M44.4388 86.9353L54.2413 85.1849C54.3428 86.6062 54.8869 87.8105 55.8747 88.8011C56.8624 89.7906 58.2928 90.2853 60.168 90.2853C61.5858 90.2853 62.6751 89.9688 63.4359 89.3336C64.1955 88.6994 64.5753 87.9259 64.5753 87.0118C64.5753 85.4899 63.3332 84.4502 60.8523 83.8915L56.5214 82.902C52.6706 82.0908 49.835 80.6568 48.0112 78.6013C46.1873 76.5458 45.276 74.0984 45.276 71.2557C45.276 67.7548 46.655 64.7853 49.4176 62.3504C52.1779 59.9145 55.6351 58.6965 59.7893 58.6965C64.702 58.6965 68.3873 59.8768 70.8454 62.2362C73.3023 64.5956 74.6562 67.1721 74.9106 69.9623L65.3361 71.7127C65.1844 70.3428 64.6643 69.2276 63.7781 68.3638C62.8906 67.5012 61.612 67.0693 59.941 67.0693C58.8266 67.0693 57.8639 67.3732 57.0541 67.9822C56.2431 68.5912 55.8382 69.3784 55.8382 70.3416C55.8382 71.8635 56.8259 72.8039 58.8015 73.1581L63.8168 74.1476C67.6163 74.9085 70.5032 76.355 72.4787 78.4859C74.4543 80.6168 75.4421 83.1294 75.4421 86.0212C75.4421 89.5232 74.1247 92.5294 71.491 95.0407C68.8561 97.5521 65.1582 98.809 60.3972 98.809C57.6107 98.809 55.1412 98.4022 52.9889 97.591C50.8354 96.7797 49.1895 95.7263 48.05 94.4317C46.9105 93.1372 46.0482 91.8564 45.4665 90.5881C44.8825 89.321 44.5403 88.103 44.4388 86.9353Z" fill="#231F20"/>
<path d="M109.672 42.5919C114.871 42.5919 119.087 46.8137 119.087 52.0227V81.1367C119.039 82.8197 118.671 88.1739 114.61 92.7008C111.638 96.0154 108.165 97.2334 106.826 97.6858C103.377 98.8501 100.543 98.6867 97.966 98.5382C95.4213 98.3919 92.7625 98.2297 89.6976 96.7181C87.8441 95.804 86.1594 94.546 84.6424 92.9441C81.1087 89.2148 79.343 84.4571 79.343 78.6722C79.343 72.989 81.0585 68.2816 84.4907 64.5522C87.9217 60.8217 92.288 58.957 97.5873 58.957C102.735 58.957 106.116 60.2504 107.731 62.8383V42.5919H109.672ZM93.2997 71.7882C91.6526 73.4129 90.8303 75.7209 90.8303 78.7145C90.8303 81.7092 91.6526 84.0309 93.2997 85.6796C94.9456 87.3295 96.9588 88.1533 99.3405 88.1533C101.721 88.1533 103.734 87.3295 105.381 85.6796C107.027 84.0309 107.851 81.7092 107.851 78.7145C107.851 75.7209 107.026 73.4129 105.381 71.7882C103.734 70.1646 101.721 69.3522 99.3405 69.3522C96.9588 69.3522 94.9456 70.1646 93.2997 71.7882Z" fill="#231F20"/>
</svg>
