<svg width="24" height="24" viewBox="0 0 24 24" fill="none" xmlns="http://www.w3.org/2000/svg">
<path fill-rule="evenodd" clip-rule="evenodd" d="M1 7C1 5.34315 2.34315 4 4 4H20C21.6569 4 23 5.34315 23 7V17C23 18.6569 21.6569 20 20 20H4C2.34315 20 1 18.6569 1 17V7ZM4 6C3.44772 6 3 6.44772 3 7V17C3 17.5523 3.44772 18 4 18H20C20.5523 18 21 17.5523 21 17V7C21 6.44772 20.5523 6 20 6H4Z" fill="white"/>
<path fill-rule="evenodd" clip-rule="evenodd" d="M22.0006 6.42747L21.69 6.72359C21.6572 6.75491 21.6223 6.78396 21.5855 6.81053L12.5855 13.3105C12.236 13.563 11.764 13.563 11.4145 13.3105L2.41449 6.81053C2.35889 6.77038 2.30758 6.72461 2.26135 6.67396L1.99109 6.37783L3.46835 5.02962L3.66908 5.24956L12 11.2663L20.3592 5.22907L20.6205 4.97998L22.0006 6.42747Z" fill="white"/>
</svg>
