<svg width="24" height="24" viewBox="0 0 24 24" fill="none" xmlns="http://www.w3.org/2000/svg">
<path fill-rule="evenodd" clip-rule="evenodd" d="M5 4C5 2.34315 6.34315 1 8 1H16C17.6569 1 19 2.34315 19 4V20C19 21.6569 17.6569 23 16 23H8C6.34315 23 5 21.6569 5 20V4ZM8 3C7.44772 3 7 3.44772 7 4V20C7 20.5523 7.44772 21 8 21H16C16.5523 21 17 20.5523 17 20V4C17 3.44772 16.5523 3 16 3H8Z" fill="white"/>
<path fill-rule="evenodd" clip-rule="evenodd" d="M13.5 20H10.5V18H13.5V20Z" fill="white"/>
<path fill-rule="evenodd" clip-rule="evenodd" d="M8 2C8 1.44772 8.44772 1 9 1H15C15.5523 1 16 1.44772 16 2V2.5C16 4.15685 14.6569 5.5 13 5.5H11C9.34315 5.5 8 4.15685 8 2.5V2ZM10.1338 3C10.3067 3.2989 10.6299 3.5 11 3.5H13C13.3701 3.5 13.6933 3.2989 13.8662 3H10.1338Z" fill="white"/>
</svg>
